<svg id="Group_1626" data-name="Group 1626" xmlns="http://www.w3.org/2000/svg" width="161.734" height="46.237" viewBox="0 0 161.734 46.237">
  <g id="Group_933" data-name="Group 933" transform="translate(55.346 9.527)">
    <g id="Group_926" data-name="Group 926" transform="translate(0 0.107)">
      <path id="Path_1945" data-name="Path 1945" d="M309.7,99.583v7.036h10.162a2.138,2.138,0,0,1,2.132,2.132,2.108,2.108,0,0,1-2.132,2.1H307.563a2.078,2.078,0,0,1-2.1-2.1V86.01a2.108,2.108,0,0,1,2.1-2.132h12.294a2.132,2.132,0,1,1,0,4.264H309.7v7.213h10.162a2.114,2.114,0,1,1,0,4.228Z" transform="translate(-305.467 -83.878)" fill="#4b00e0"/>
    </g>
    <g id="Group_927" data-name="Group 927" transform="translate(18.299 9.061)">
      <path id="Path_1946" data-name="Path 1946" d="M406.032,126.56v16.1a9.144,9.144,0,0,1-16.061,6,2.181,2.181,0,0,1,.249-3.056,2.12,2.12,0,0,1,3.056.213,4.7,4.7,0,0,0,3.625,1.634,4.777,4.777,0,0,0,4.8-4.8v-1.563a8.886,8.886,0,1,1-4.513-16.522,8.638,8.638,0,0,1,4.619,1.315,2.225,2.225,0,0,1,2.061-1.492,2.176,2.176,0,0,1,2.168,2.167m-4.335,6.893A4.53,4.53,0,1,0,397.185,138a4.527,4.527,0,0,0,4.513-4.548" transform="translate(-388.266 -124.393)" fill="#4b00e0"/>
    </g>
    <g id="Group_928" data-name="Group 928" transform="translate(38.801 9.31)">
      <path id="Path_1947" data-name="Path 1947" d="M499.014,127.544v13.609a2.032,2.032,0,0,1-2.061,2.025,1.887,1.887,0,0,1-1.883-2.025v-.427a8.106,8.106,0,0,1-5.437,2.1,8.581,8.581,0,1,1,0-17.162,8.44,8.44,0,0,1,5.437,2.061v-.178a1.886,1.886,0,0,1,1.883-2.025,2.032,2.032,0,0,1,2.061,2.025m-4.939,6.716a4.46,4.46,0,1,0-4.442,4.406,4.466,4.466,0,0,0,4.442-4.406" transform="translate(-481.035 -125.519)" fill="#4b00e0"/>
    </g>
    <g id="Group_929" data-name="Group 929" transform="translate(60.652 0.107)">
      <path id="Path_1948" data-name="Path 1948" d="M586.942,108.679a2.153,2.153,0,0,1-2.167,2.167,5.024,5.024,0,0,1-3.873-1.919c-1.066-1.386-.995-2.949-.995-4.619v-18.3a2.15,2.15,0,0,1,4.3,0V105.3c0,.107-.036.213-.036.32s.036.213.036.32a.592.592,0,0,0,.568.6,2.146,2.146,0,0,1,2.167,2.132" transform="translate(-579.905 -83.877)" fill="#4b00e0"/>
    </g>
    <g id="Group_930" data-name="Group 930" transform="translate(70.353 1.67)">
      <path id="Path_1949" data-name="Path 1949" d="M626.041,95.5a2.215,2.215,0,0,1-2.239-2.168v-.178a2.2,2.2,0,0,1,4.406,0v.178a2.2,2.2,0,0,1-2.168,2.168m0,20.857a2.222,2.222,0,0,1-2.239-2.2V100.439a2.2,2.2,0,0,1,4.406,0v13.716a2.207,2.207,0,0,1-2.168,2.2" transform="translate(-623.802 -90.952)" fill="#4b00e0"/>
    </g>
    <g id="Group_931" data-name="Group 931" transform="translate(76.394)">
      <path id="Path_1950" data-name="Path 1950" d="M662.186,108.232a2.115,2.115,0,0,1-2.132,2.132,8.071,8.071,0,0,1-.924-.035,5.13,5.13,0,0,1-3.127-1.6,5.233,5.233,0,0,1-1.208-3.2V96.577h-1.528a2.132,2.132,0,0,1,0-4.264H654.8V85.527a2.132,2.132,0,0,1,4.264,0v6.787h1.172a2.132,2.132,0,1,1,0,4.264h-1.172v8.456c.071.285,0,.711.249.924.177.177.5.142.746.142a2.138,2.138,0,0,1,2.132,2.132" transform="translate(-651.136 -83.395)" fill="#4b00e0"/>
    </g>
    <g id="Group_932" data-name="Group 932" transform="translate(89.043 9.345)">
      <path id="Path_1951" data-name="Path 1951" d="M723.685,135.7H712.741a4.683,4.683,0,0,0,4.513,3.588,5.947,5.947,0,0,0,3.731-1.35,2.134,2.134,0,0,1,3.02.036,2.1,2.1,0,0,1-.035,3.02,9.9,9.9,0,0,1-6.716,2.523,8.919,8.919,0,0,1,0-17.837,7.745,7.745,0,0,1,1.563.142,8.6,8.6,0,0,1,5.756,4.086,6.872,6.872,0,0,1,1.137,3.482,3,3,0,0,1-.284,1.031,1.931,1.931,0,0,1-1.741,1.279m-10.34-3.589h7.533a3.953,3.953,0,0,0-3.624-2.132,4.609,4.609,0,0,0-3.909,2.132" transform="translate(-708.37 -125.679)" fill="#4b00e0"/>
    </g>
  </g>
  <g id="Group_934" data-name="Group 934" transform="translate(19.586 27.233)">
    <path id="Path_1952" data-name="Path 1952" d="M147.244,182.514a.254.254,0,0,1-.2-.088,14.134,14.134,0,0,1-2.027-3.611A21.672,21.672,0,0,1,145,163.759l.011-.028a.3.3,0,0,1,.283-.22.322.322,0,0,1,.311.272c.111.413.236.831.374,1.241a24.369,24.369,0,0,0,4.533,7.941l.112.13a.425.425,0,0,1,.1.316,19.958,19.958,0,0,1-1.437,5.844,13.851,13.851,0,0,1-1.852,3.176.242.242,0,0,1-.189.083" transform="translate(-143.66 -163.51)" fill="#4b00e0"/>
  </g>
  <g id="Group_935" data-name="Group 935" transform="translate(24.604 27.283)">
    <path id="Path_1953" data-name="Path 1953" d="M181.061,175.959a14.136,14.136,0,0,1-3.986-1.12,21.675,21.675,0,0,1-10.659-10.633l-.013-.029a.312.312,0,0,1,.007-.309.3.3,0,0,1,.249-.134.4.4,0,0,1,.2.06c.37.214.754.42,1.142.613a24.373,24.373,0,0,0,8.821,2.41l.171.013a.424.424,0,0,1,.293.154,19.967,19.967,0,0,1,3.117,5.149,13.858,13.858,0,0,1,.936,3.555.236.236,0,0,1-.064.18.263.263,0,0,1-.19.092h-.025" transform="translate(-166.365 -163.734)" fill="#4b00e0"/>
  </g>
  <g id="Group_936" data-name="Group 936" transform="translate(27.233 19.586)">
    <path id="Path_1954" data-name="Path 1954" d="M186.014,135.974a20.875,20.875,0,0,1-7.5-1.34l-.029-.011a.3.3,0,0,1-.219-.3.323.323,0,0,1,.272-.295c.411-.11.829-.236,1.241-.374a24.373,24.373,0,0,0,7.941-4.533l.13-.112a.427.427,0,0,1,.276-.1l.04,0a19.959,19.959,0,0,1,5.844,1.437,13.864,13.864,0,0,1,3.176,1.852.243.243,0,0,1,.083.189.255.255,0,0,1-.088.2,14.145,14.145,0,0,1-3.611,2.027,20.874,20.874,0,0,1-7.552,1.359" transform="translate(-178.261 -128.909)" fill="#4b00e0"/>
  </g>
  <g id="Group_937" data-name="Group 937" transform="translate(27.282 6.659)">
    <path id="Path_1955" data-name="Path 1955" d="M178.768,85.391a.283.283,0,0,1-.243-.144.333.333,0,0,1,.02-.351c.213-.369.419-.753.613-1.142a24.374,24.374,0,0,0,2.41-8.821l.013-.171a.424.424,0,0,1,.154-.293,19.956,19.956,0,0,1,5.148-3.117,13.84,13.84,0,0,1,3.556-.936h.005a.253.253,0,0,1,.2.088.248.248,0,0,1,.067.19,14.139,14.139,0,0,1-1.12,3.987,21.677,21.677,0,0,1-10.633,10.659l-.029.012a.405.405,0,0,1-.16.037" transform="translate(-178.485 -70.417)" fill="#4b00e0"/>
  </g>
  <g id="Group_938" data-name="Group 938" transform="translate(19.586)">
    <path id="Path_1956" data-name="Path 1956" d="M147.14,40.285a.254.254,0,0,1,.2.088,14.135,14.135,0,0,1,2.027,3.611,21.675,21.675,0,0,1,.018,15.056l-.011.028a.3.3,0,0,1-.283.22.322.322,0,0,1-.311-.272c-.111-.413-.237-.831-.374-1.241a24.373,24.373,0,0,0-4.533-7.941l-.112-.13a.425.425,0,0,1-.1-.316,19.965,19.965,0,0,1,1.437-5.844,13.849,13.849,0,0,1,1.852-3.176.242.242,0,0,1,.189-.083" transform="translate(-143.66 -40.285)" fill="#4b00e0"/>
  </g>
  <g id="Group_939" data-name="Group 939" transform="translate(6.658 6.728)">
    <path id="Path_1957" data-name="Path 1957" d="M85.442,70.731a14.135,14.135,0,0,1,3.987,1.12,21.673,21.673,0,0,1,10.659,10.633l.013.029a.311.311,0,0,1-.007.309.3.3,0,0,1-.249.134.4.4,0,0,1-.2-.06c-.37-.214-.754-.42-1.142-.613a24.375,24.375,0,0,0-8.821-2.41l-.171-.013a.424.424,0,0,1-.293-.154A19.962,19.962,0,0,1,86.1,74.557,13.848,13.848,0,0,1,85.164,71a.234.234,0,0,1,.063-.18.262.262,0,0,1,.19-.092h.025" transform="translate(-85.163 -70.73)" fill="#fa7800"/>
  </g>
  <g id="Group_940" data-name="Group 940" transform="translate(0 19.586)">
    <path id="Path_1958" data-name="Path 1958" d="M66.289,128.909a20.873,20.873,0,0,1,7.5,1.34l.029.011a.3.3,0,0,1,.219.3.322.322,0,0,1-.272.295c-.412.111-.829.236-1.241.374a24.369,24.369,0,0,0-7.941,4.533l-.13.112a.427.427,0,0,1-.276.1l-.04,0a19.96,19.96,0,0,1-5.844-1.437,13.855,13.855,0,0,1-3.176-1.852.242.242,0,0,1-.083-.189.255.255,0,0,1,.088-.2,14.135,14.135,0,0,1,3.611-2.027,20.868,20.868,0,0,1,7.552-1.359" transform="translate(-55.037 -128.909)" fill="#4b00e0"/>
  </g>
  <g id="Group_941" data-name="Group 941" transform="translate(6.728 24.604)">
    <path id="Path_1959" data-name="Path 1959" d="M97.425,151.614a.283.283,0,0,1,.243.144.333.333,0,0,1-.02.35c-.213.369-.42.753-.613,1.142a24.373,24.373,0,0,0-2.41,8.82l-.013.171a.424.424,0,0,1-.154.293,19.955,19.955,0,0,1-5.149,3.117,13.849,13.849,0,0,1-3.556.936h-.005a.254.254,0,0,1-.2-.088.248.248,0,0,1-.066-.19,14.13,14.13,0,0,1,1.12-3.987,21.675,21.675,0,0,1,10.633-10.659l.029-.012a.4.4,0,0,1,.16-.037" transform="translate(-85.481 -151.614)" fill="#4b00e0"/>
  </g>
</svg>
